HIERARCHY
ROOT Hips
{
	OFFSET 0.00000 0.00000 0.00000
	CHANNELS 6 Xposition Yposition Zposition Zrotation Yrotation Xrotation 
	JOINT LHipJoint
	{
		OFFSET 0 0 0
		CHANNELS 3 Zrotation Yrotation Xrotation
		JOINT LeftUpLeg
		{
			OFFSET 1.58161 -1.81893 0.78828
			CHANNELS 3 Zrotation Yrotation Xrotation
			JOINT LeftLeg
			{
				OFFSET 2.53374 -6.96141 0.00000
				CHANNELS 3 Zrotation Yrotation Xrotation
				JOINT LeftFoot
				{
					OFFSET 2.63509 -7.23986 0.00000
					CHANNELS 3 Zrotation Yrotation Xrotation
					JOINT LeftToeBase
					{
						OFFSET 0.14115 -0.38781 2.05350
						CHANNELS 3 Zrotation Yrotation Xrotation
						End Site
						{
							OFFSET 0.00000 -0.00000 1.05543
						}
					}
				}
			}
		}
	}
	JOINT RHipJoint
	{
		OFFSET 0 0 0
		CHANNELS 3 Zrotation Yrotation Xrotation
		JOINT RightUpLeg
		{
			OFFSET -1.11138 -1.81893 0.78828
			CHANNELS 3 Zrotation Yrotation Xrotation
			JOINT RightLeg
			{
				OFFSET -2.58392 -7.09926 0.00000
				CHANNELS 3 Zrotation Yrotation Xrotation
				JOINT RightFoot
				{
					OFFSET -2.66423 -7.31992 0.00000
					CHANNELS 3 Zrotation Yrotation Xrotation
					JOINT RightToeBase
					{
						OFFSET -0.18831 -0.51739 2.12114
						CHANNELS 3 Zrotation Yrotation Xrotation
						End Site
						{
							OFFSET -0.00000 -0.00000 1.09845
						}
					}
				}
			}
		}
	}
	JOINT LowerBack
	{
		OFFSET 0 0 0
		CHANNELS 3 Zrotation Yrotation Xrotation
		JOINT Spine
		{
			OFFSET -0.01511 1.97958 -0.08829
			CHANNELS 3 Zrotation Yrotation Xrotation
			JOINT Spine1
			{
				OFFSET 0.08344 1.97334 -0.04330
				CHANNELS 3 Zrotation Yrotation Xrotation
				JOINT Neck
				{
					OFFSET 0 0 0
					CHANNELS 3 Zrotation Yrotation Xrotation
					JOINT Neck1
					{
						OFFSET 0.00559 1.76246 0.31246
						CHANNELS 3 Zrotation Yrotation Xrotation
						JOINT Head
						{
							OFFSET -0.07011 1.80354 -0.30524
							CHANNELS 3 Zrotation Yrotation Xrotation
							End Site
							{
								OFFSET -0.02385 1.83547 -0.13906
							}
						}
					}
				}
				JOINT LeftShoulder
				{
					OFFSET 0 0 0
					CHANNELS 3 Zrotation Yrotation Xrotation
					JOINT LeftArm
					{
						OFFSET 3.20667 1.30156 -0.60240
						CHANNELS 3 Zrotation Yrotation Xrotation
						JOINT LeftForeArm
						{
							OFFSET 4.95663 -0.00000 0.00000
							CHANNELS 3 Zrotation Yrotation Xrotation
							JOINT LeftHand
							{
								OFFSET 3.38177 -0.00000 0.00000
								CHANNELS 3 Zrotation Yrotation Xrotation
								JOINT LeftFingerBase
								{
									OFFSET 0 0 0
									CHANNELS 3 Zrotation Yrotation Xrotation
									JOINT LeftHandIndex1
									{
										OFFSET 0.66291 -0.00000 0.00000
										CHANNELS 3 Zrotation Yrotation Xrotation
										End Site
										{
											OFFSET 0.53445 -0.00000 0.00000
										}
									}
								}
								JOINT LThumb
								{
									OFFSET 0 0 0
									CHANNELS 3 Zrotation Yrotation Xrotation
									End Site
									{
										OFFSET 0.54261 -0.00000 0.54261
									}
								}
							}
						}
					}
				}
				JOINT RightShoulder
				{
					OFFSET 0 0 0
					CHANNELS 3 Zrotation Yrotation Xrotation
					JOINT RightArm
					{
						OFFSET -3.06877 1.34672 -0.60964
						CHANNELS 3 Zrotation Yrotation Xrotation
						JOINT RightForeArm
						{
							OFFSET -5.08365 -0.00000 0.00000
							CHANNELS 3 Zrotation Yrotation Xrotation
							JOINT RightHand
							{
								OFFSET -3.35984 -0.00000 0.00000
								CHANNELS 3 Zrotation Yrotation Xrotation
								JOINT RightFingerBase
								{
									OFFSET 0 0 0
									CHANNELS 3 Zrotation Yrotation Xrotation
									JOINT RightHandIndex1
									{
										OFFSET -0.82076 -0.00000 0.00000
										CHANNELS 3 Zrotation Yrotation Xrotation
										End Site
										{
											OFFSET -0.66172 -0.00000 0.00000
										}
									}
								}
								JOINT RThumb
								{
									OFFSET 0 0 0
									CHANNELS 3 Zrotation Yrotation Xrotation
									End Site
									{
										OFFSET -0.67182 -0.00000 0.67182
									}
								}
							}
						}
					}
				}
			}
		}
	}
}
MOTION
Frames: 7
Frame Time: .0083333
0.0039 18.0949 -9.4612 0 0 0 0 0 0 -21 0 0 0 0 0 0 0 0 0 0 0 0 0 0 21 0 0 0 0 0 0 0 0 0 0 0 0 0 0 0 0 0 0 0 0 0 0 -16 0 0 21 0 0 11 0 0 0 -8 0 0 0 0 0 0 0 0 0 0 0 0 0 0 0 0 0 0 0 0 8 0 0 0 0 0 0 0 0 0 0 0 0 0 0 0 0 0
0.0039 18.0949 -9.4612 -4.3803 -0.1171 7.6518 0.0000 0.0000 0.0000 -12.2155 -2.9839 -11.7548 1.8124 8.4640 24.1324 0.7415 0.2132 -16.3528 0.2619 -3.2922 -9.0934 0.0000 0.0000 0.0000 21.0233 7.9138 -10.6609 -1.6304 -8.0496 22.8648 -0.5996 -1.2571 -15.1356 -0.0244 -1.0085 2.7722 -2.3754 0.0317 -7.9303 3.9493 0.0810 0.0404 5.4849 -0.0575 4.4900 1.5083 0.6210 -14.2609 -6.2371 3.2105 42.0486 -2.6145 0.6868 18.3397 -0.0000 -0.0000 0.0000 -85.2926 3.6554 56.6630 102.1300 -59.4367 -70.4850 -0.0000 0.0000 -36.0439 0.6860 48.7769 0.5160 -7.1250 0.0000 -0.0000 -61.1265 69.9240 -41.2117 -0.0000 -0.0000 0.0000 77.1585 -4.7473 63.8974 -108.1256 58.7215 -75.6298 0.0000 0.0000 4.8594 -19.3095 17.6764 -6.0729 7.1250 -0.0000 -0.0000 5.7031 -11.3920 4.4871
0.0096 18.0973 -9.4581 -4.4628 -0.1182 7.8656 0.0000 0.0000 0.0000 -12.1316 -3.0377 -12.0007 1.8185 8.4772 24.1733 0.7262 0.2687 -16.2040 0.2616 -3.2905 -9.0885 0.0000 0.0000 0.0000 21.0689 7.9438 -10.8837 -1.6260 -8.0392 22.8331 -0.5926 -1.2125 -15.0298 -0.0197 -0.9069 2.4926 -2.4590 0.0039 -8.1245 4.0698 0.0462 0.0821 5.6611 -0.0827 4.6473 1.3952 0.6503 -14.6287 -6.2610 3.3125 42.0855 -2.5912 0.7007 18.4717 0.0000 -0.0000 0.0000 -84.8906 3.3685 58.1085 100.9544 -59.5417 -69.4722 -0.0000 0.0000 -32.7448 3.4178 46.5382 2.4822 -7.1250 0.0000 -0.0000 -53.7302 69.6694 -34.9908 0.0000 -0.0000 0.0000 76.9785 -4.3919 63.9404 -107.8734 58.7578 -75.4143 0.0000 0.0000 5.0587 -19.5514 17.5233 -6.1033 7.1250 -0.0000 -0.0000 5.5355 -11.5219 4.3391
0.0181 18.0990 -9.4585 -4.4740 -0.0455 7.9347 0.0000 0.0000 0.0000 -12.1368 -3.1415 -12.0961 1.8253 8.4924 24.2199 0.7231 0.2856 -16.1759 0.2746 -3.3704 -9.3118 0.0000 0.0000 0.0000 21.0476 7.9144 -10.9450 -1.6173 -8.0188 22.7713 -0.5893 -1.1995 -14.9841 -0.0307 -1.1305 3.1079 -2.5255 -0.0517 -8.2089 4.1448 -0.0269 0.1683 5.7734 -0.1269 4.7944 1.2782 0.6485 -14.8437 -6.3088 3.3709 42.0451 -2.5815 0.6952 18.5114 0.0000 -0.0000 0.0000 -84.4544 3.0772 59.4941 99.7521 -59.6376 -68.4352 -0.0000 0.0000 -29.3081 9.6350 49.0840 7.3104 -7.1250 0.0000 -0.0000 -55.1142 73.2342 -39.8426 0.0000 -0.0000 0.0000 76.8156 -4.1204 63.9907 -107.8413 58.7624 -75.3868 0.0000 0.0000 5.1028 -19.5643 17.7095 -6.1699 7.1250 -0.0000 -0.0000 5.5370 -11.3263 4.3627
0.0279 18.1012 -9.4569 -4.5625 0.0287 7.9261 0.0000 0.0000 0.0000 -12.0648 -3.2492 -12.0931 1.8335 8.5103 24.2750 0.7333 0.2691 -16.2828 0.2587 -3.2725 -9.0385 0.0000 0.0000 0.0000 21.1167 7.8957 -10.9035 -1.6100 -8.0016 22.7191 -0.5845 -1.2577 -14.9510 -0.0251 -1.0226 2.8111 -2.3854 -0.0662 -7.8934 4.1424 -0.0578 0.0319 5.6795 -0.1287 4.4769 1.1091 0.5375 -14.7831 -6.2434 3.2285 42.1052 -2.5492 0.6191 18.5160 0.0000 0.0000 0.0000 -83.8858 3.1886 61.1693 98.2217 -59.7430 -67.1140 -0.0000 0.0000 -24.8842 13.9916 48.9423 10.6411 -7.1250 0.0000 -0.0000 -51.2298 74.7907 -38.1674 0.0000 0.0000 0.0000 76.8300 -4.2932 64.0635 -108.0179 58.7371 -75.5378 0.0000 0.0000 5.0562 -19.2997 17.7798 -6.1036 7.1250 -0.0000 -0.0000 5.7150 -11.2856 4.5091
0.0354 18.1022 -9.4546 -4.8202 0.0504 7.9477 0.0000 0.0000 0.0000 -11.7906 -3.3078 -12.0946 1.8402 8.5250 24.3203 0.7406 0.2745 -16.3650 0.2442 -3.1801 -8.7806 0.0000 0.0000 0.0000 21.3799 7.9308 -10.8934 -1.6056 -7.9912 22.6875 -0.5761 -1.3399 -14.8850 -0.0131 -0.7384 2.0294 -2.1395 -0.0568 -7.7234 4.2142 -0.0683 -0.0911 5.6091 -0.1221 4.2534 0.6329 0.2501 -14.5229 -6.0618 2.8538 42.0752 -2.4421 0.4181 18.3865 -0.0000 -0.0000 0.0000 -83.3119 3.2252 63.9626 95.4997 -59.8854 -64.7610 -0.0000 0.0000 -15.9636 20.4108 47.5992 15.3647 -7.1250 0.0000 -0.0000 -41.0275 76.5028 -31.3155 -0.0000 -0.0000 0.0000 76.7877 -4.4293 64.1027 -108.0801 58.7281 -75.5910 0.0000 0.0000 4.9483 -19.0701 17.7330 -6.0107 7.1250 -0.0000 -0.0000 5.8638 -11.3623 4.6185
0.0406 18.0992 -9.4521 -4.9523 0.0340 7.9762 0.0000 0.0000 0.0000 -11.6497 -3.3341 -12.0795 1.8463 8.5384 24.3617 0.7381 0.3019 -16.3473 0.2390 -3.1464 -8.6865 0.0000 0.0000 0.0000 21.5132 7.9256 -10.9103 -1.6014 -7.9811 22.6566 -0.5669 -1.3906 -14.7931 -0.0105 -0.6612 1.8169 -2.0265 -0.0244 -7.6857 4.2172 -0.0337 -0.1515 5.5498 -0.0995 4.1649 0.6697 0.2732 -14.4368 -5.9980 2.8493 42.0744 -2.4180 0.4324 18.3599 -0.0000 -0.0000 0.0000 -83.3941 2.7241 64.2625 95.4195 -59.8887 -64.6916 -0.0000 0.0000 -16.2819 22.2919 47.4577 16.8071 -7.1250 0.0000 -0.0000 -38.5834 77.1651 -29.8373 -0.0000 -0.0000 0.0000 76.8363 -4.5133 64.0560 -107.9756 58.7432 -75.5016 0.0000 0.0000 4.9249 -19.0212 17.8187 -6.0220 7.1250 -0.0000 -0.0000 5.9004 -11.2791 4.6578
